<?xml version="1.0" standalone="no"?>
<!DOCTYPE svg PUBLIC "-//W3C//DTD SVG 20010904//EN"
 "http://www.w3.org/TR/2001/REC-SVG-20010904/DTD/svg10.dtd">
<svg version="1.0" xmlns="http://www.w3.org/2000/svg"
 width="174.000000pt" height="161.000000pt" viewBox="0 0 174.000000 161.000000"
 preserveAspectRatio="xMidYMid meet">

<g transform="translate(0.000000,161.000000) scale(0.100000,-0.100000)"
fill="#000000" stroke="none">
<path d="M843 1553 c-4 -10 -39 -74 -78 -143 -39 -69 -91 -162 -116 -207 -43
-81 -45 -83 -81 -83 -21 0 -38 -4 -38 -8 0 -5 14 -6 31 -4 23 3 30 1 27 -8 -2
-8 -33 -19 -69 -27 -73 -14 -171 -61 -221 -104 l-33 -29 46 29 c73 48 142 80
198 92 29 6 54 9 57 6 2 -2 -7 -25 -22 -50 -20 -37 -31 -47 -52 -47 -15 -1
-40 -8 -57 -16 -16 -8 -21 -12 -10 -8 95 29 221 16 300 -31 127 -74 203 -251
176 -410 -7 -39 -24 -95 -39 -126 l-27 -56 40 -16 39 -17 -49 -50 c-158 -160
-430 -173 -590 -27 -65 58 -107 122 -135 207 -19 55 -21 80 -17 165 5 118 26
180 92 279 25 37 41 65 35 61 -19 -12 -91 -125 -106 -168 -72 -203 -34 -400
104 -534 60 -58 112 -88 187 -107 161 -42 330 4 443 123 32 34 46 41 54 33 9
-9 3 -22 -27 -55 l-40 -42 46 43 46 43 196 -99 c107 -55 198 -98 201 -94 11
10 6 21 -7 16 -7 -2 -91 36 -187 86 -96 50 -203 105 -237 122 -35 18 -63 36
-63 41 0 5 7 23 15 40 21 47 45 146 45 189 l0 38 43 -5 c23 -3 121 -12 217
-20 328 -27 450 -38 450 -41 0 -2 -20 -35 -45 -73 -25 -38 -45 -73 -45 -77 0
-5 25 29 55 74 30 46 55 84 55 86 0 2 -43 7 -96 11 l-96 8 5 36 c3 20 26 132
50 249 32 156 41 212 31 212 -7 0 -50 -13 -95 -29 -46 -16 -87 -27 -91 -25 -4
3 -8 16 -8 28 0 27 -77 417 -84 424 -3 2 -52 -39 -110 -92 -58 -53 -109 -96
-113 -96 -4 1 -46 66 -93 146 -47 80 -88 148 -93 151 -4 2 -10 -4 -14 -14z
m387 -169 c0 -8 -19 -13 -24 -6 -3 5 1 9 9 9 8 0 15 -2 15 -3z m-115 -104 c-3
-5 -12 -10 -18 -10 -7 0 -6 4 3 10 19 12 23 12 15 0z m182 -82 c-3 -7 -5 -2
-5 12 0 14 2 19 5 13 2 -7 2 -19 0 -25z m6 -83 c5 -28 4 -34 -3 -20 -8 19 -14
73 -6 64 2 -2 6 -22 9 -44z m233 -82 c-3 -10 -8 -34 -11 -53 -6 -40 -27 -141
-50 -245 -9 -38 -20 -89 -24 -113 -4 -23 -10 -44 -12 -47 -3 -2 -108 5 -234
15 -127 11 -242 20 -257 20 -24 0 -28 5 -39 58 -7 31 -21 74 -31 94 -10 21
-18 41 -18 46 0 5 46 23 103 40 102 31 311 104 482 168 50 18 91 33 93 34 2 0
1 -8 -2 -17z m-236 -33 c0 -5 -5 -10 -11 -10 -5 0 -7 5 -4 10 3 6 8 10 11 10
2 0 4 -4 4 -10z"/>
<path d="M445 1095 c-40 -18 -21 -18 35 -1 32 10 38 15 20 15 -14 0 -38 -6
-55 -14z"/>
<path d="M357 1059 c-61 -32 -181 -153 -215 -216 -161 -302 -40 -654 260 -759
65 -23 84 -26 168 -21 103 5 185 31 256 82 47 32 39 30 -43 -13 -128 -66 -255
-78 -383 -36 -343 113 -431 584 -161 855 37 36 90 78 119 93 48 24 63 37 45
36 -5 -1 -25 -10 -46 -21z"/>
<path d="M360 920 c-9 -6 -10 -10 -3 -10 6 0 15 5 18 10 8 12 4 12 -15 0z"/>
<path d="M258 828 c-33 -44 -51 -78 -44 -86 3 -3 6 -1 6 5 0 6 16 34 35 62 39
57 41 69 3 19z"/>
<path d="M382 784 c-27 -19 -28 -34 -2 -34 11 0 20 -5 20 -11 0 -11 -92 -158
-149 -237 -70 -97 -14 -114 58 -17 70 92 143 161 202 189 63 31 59 30 59 10 0
-21 -27 -65 -107 -176 -35 -48 -63 -92 -63 -97 0 -32 33 -9 133 91 84 86 131
124 188 156 42 23 79 42 83 42 22 0 -3 -47 -55 -106 -68 -76 -112 -159 -107
-201 4 -40 57 -45 93 -9 32 32 32 48 0 40 -17 -4 -25 -2 -25 7 0 13 55 110
117 206 31 48 41 82 27 96 -13 12 -184 -71 -243 -118 -24 -20 -46 -34 -48 -31
-3 2 12 35 31 72 20 37 36 73 36 81 0 30 -75 4 -167 -58 -67 -46 -78 -39 -38
26 32 53 33 95 2 95 -12 0 -33 -7 -45 -16z"/>
<path d="M191 693 c-6 -21 -11 -45 -10 -53 0 -8 7 7 14 35 8 27 12 51 10 53
-2 2 -8 -13 -14 -35z"/>
<path d="M175 548 c5 -76 31 -167 60 -204 11 -13 10 -6 -3 21 -29 61 -41 104
-52 185 l-9 75 4 -77z"/>
<path d="M1464 268 c-25 -40 -55 -86 -66 -101 -11 -16 -18 -31 -15 -33 2 -3
31 37 64 88 73 114 76 118 69 118 -4 0 -27 -33 -52 -72z"/>
<path d="M784 269 c-19 -21 -72 -52 -129 -77 -27 -11 -27 -12 -4 -7 36 6 110
49 139 80 13 14 21 25 18 25 -3 0 -13 -9 -24 -21z"/>
<path d="M309 256 c18 -21 101 -69 108 -62 4 3 2 6 -3 6 -5 0 -34 16 -63 36
-30 19 -49 28 -42 20z"/>
<path d="M438 183 c7 -3 16 -2 19 1 4 3 -2 6 -13 5 -11 0 -14 -3 -6 -6z"/>
<path d="M483 173 c9 -2 25 -2 35 0 9 3 1 5 -18 5 -19 0 -27 -2 -17 -5z"/>
<path d="M573 173 c9 -2 25 -2 35 0 9 3 1 5 -18 5 -19 0 -27 -2 -17 -5z"/>
</g>
</svg>
